# xmcd
#
# Track frame offsets:
#	150
#	18087
#	32627
#	49322
#	65037
#	78747
#	95615
#	112960
#	126407
#	140707
#
# Disc length: 2100
#
# Revision: 3
# Processed by: cddbd v1.5.1PL0 Copyright (c) Steve Scherf et al.
# Submitted via: DiscPlay 4.0.4
# Normalized: r1:TSWAP
#
DISCID=8e08320a
DTITLE=Various Artist - Great American Favorites
DYEAR=1900
DGENRE=
TTITLE0=Lynn Anderson - Go Tell It On The Moutain
TTITLE1=Kitty Wells - Careless Love
TTITLE2=Donna Fargo - The House Of The Rising Sun
TTITLE3=Janie Fricke - The Foggy Dew
TTITLE4=Jean Shepard - The Blue Tall Fly
TTITLE5=Kitty Wells - On Top Of Old Smokey
TTITLE6=Janie Fricke - Blowin' In The Wind
TTITLE7=Lynn Anderson - Frankie And Johnny
TTITLE8=Jean Shepard - Tom Dooley
TTITLE9=Donnar Fargo - Battle Hymn Of The Republic
EXTD=
EXTT0=
EXTT1=
EXTT2=
EXTT3=
EXTT4=
EXTT5=
EXTT6=
EXTT7=
EXTT8=
EXTT9=
PLAYORDER=
